<mxfile host="app.diagrams.net" modified="2022-08-04T00:11:11.153Z" agent="5.0 (Windows NT 10.0; Win64; x64) AppleWebKit/537.36 (KHTML, like Gecko) Chrome/103.0.0.0 Safari/537.36" etag="zJ92H1CUPfOEpZdiaI4C" version="20.2.3" type="github">
  <diagram id="NzE8oe3MWfRKhJQhQXcz" name="페이지-1">
    <mxGraphModel dx="1307" dy="738" grid="1" gridSize="10" guides="1" tooltips="1" connect="1" arrows="1" fold="1" page="1" pageScale="1" pageWidth="827" pageHeight="1169" math="0" shadow="0">
      <root>
        <mxCell id="0" />
        <mxCell id="1" parent="0" />
        <mxCell id="UbRukx0NZZpt-SWhUrVq-4" value="" style="edgeStyle=orthogonalEdgeStyle;rounded=0;orthogonalLoop=1;jettySize=auto;html=1;" edge="1" parent="1" source="UbRukx0NZZpt-SWhUrVq-1" target="UbRukx0NZZpt-SWhUrVq-2">
          <mxGeometry relative="1" as="geometry" />
        </mxCell>
        <mxCell id="UbRukx0NZZpt-SWhUrVq-1" value="vdvfdfdfd" style="rounded=0;whiteSpace=wrap;html=1;" vertex="1" parent="1">
          <mxGeometry x="354" y="190" width="120" height="60" as="geometry" />
        </mxCell>
        <mxCell id="UbRukx0NZZpt-SWhUrVq-2" value="vcvvcvcv" style="shape=process;whiteSpace=wrap;html=1;backgroundOutline=1;" vertex="1" parent="1">
          <mxGeometry x="350" y="350" width="120" height="60" as="geometry" />
        </mxCell>
        <mxCell id="UbRukx0NZZpt-SWhUrVq-3" value="" style="endArrow=none;html=1;rounded=0;" edge="1" parent="1">
          <mxGeometry width="50" height="50" relative="1" as="geometry">
            <mxPoint x="390" y="400" as="sourcePoint" />
            <mxPoint x="440" y="350" as="targetPoint" />
          </mxGeometry>
        </mxCell>
      </root>
    </mxGraphModel>
  </diagram>
</mxfile>
